<svg width="179" height="100" viewBox="0 0 179 100" fill="none" xmlns="http://www.w3.org/2000/svg">
<path d="M0 0H179V78.5C179 90.3741 169.374 100 157.5 100H21.5C9.62587 100 0 90.3741 0 78.5V0Z" fill="#0F7BFF"/>
<path d="M45.464 58.192C45.584 58.504 45.644 58.792 45.644 59.056C45.644 59.68 45.44 60.196 45.032 60.604C44.624 60.988 44.156 61.18 43.628 61.18C43.196 61.18 42.8 61.048 42.44 60.784C42.104 60.52 41.84 60.16 41.648 59.704L39.776 55.348H29.048L27.176 59.74C27.008 60.196 26.744 60.556 26.384 60.82C26.048 61.06 25.676 61.18 25.268 61.18C24.644 61.18 24.164 61.012 23.828 60.676C23.516 60.34 23.36 59.884 23.36 59.308C23.36 59.092 23.396 58.864 23.468 58.624L32.432 37.096C32.624 36.616 32.912 36.244 33.296 35.98C33.68 35.716 34.112 35.608 34.592 35.656C35.024 35.656 35.42 35.788 35.78 36.052C36.164 36.292 36.44 36.64 36.608 37.096L45.464 58.192ZM38.012 51.208L34.376 42.784L30.812 51.208H38.012ZM58.3042 41.38C59.9602 41.38 61.4602 41.812 62.8042 42.676C64.1482 43.516 65.2042 44.692 65.9722 46.204C66.7642 47.716 67.1602 49.432 67.1602 51.352C67.1602 53.272 66.7762 55 66.0082 56.536C65.2402 58.048 64.1842 59.236 62.8402 60.1C61.5202 60.94 60.0562 61.36 58.4482 61.36C57.2962 61.36 56.2042 61.132 55.1722 60.676C54.1642 60.196 53.3242 59.62 52.6522 58.948V66.004C52.6522 66.628 52.4482 67.144 52.0402 67.552C51.6322 67.984 51.1162 68.2 50.4922 68.2C49.8682 68.2 49.3522 67.996 48.9442 67.588C48.5362 67.18 48.3322 66.652 48.3322 66.004V43.936C48.3322 43.312 48.5362 42.796 48.9442 42.388C49.3522 41.956 49.8682 41.74 50.4922 41.74C51.1162 41.74 51.6322 41.956 52.0402 42.388C52.4482 42.796 52.6522 43.312 52.6522 43.936V44.08C53.2282 43.36 54.0322 42.736 55.0642 42.208C56.0962 41.656 57.1762 41.38 58.3042 41.38ZM57.7642 57.4C59.3002 57.4 60.5602 56.824 61.5442 55.672C62.5282 54.52 63.0202 53.08 63.0202 51.352C63.0202 49.624 62.5282 48.196 61.5442 47.068C60.5842 45.916 59.3242 45.34 57.7642 45.34C56.2042 45.34 54.9322 45.916 53.9482 47.068C52.9642 48.196 52.4722 49.624 52.4722 51.352C52.4722 53.08 52.9642 54.52 53.9482 55.672C54.9322 56.824 56.2042 57.4 57.7642 57.4ZM80.7339 41.38C82.3899 41.38 83.8899 41.812 85.2339 42.676C86.5779 43.516 87.6339 44.692 88.4019 46.204C89.1939 47.716 89.5899 49.432 89.5899 51.352C89.5899 53.272 89.2059 55 88.4379 56.536C87.6699 58.048 86.6139 59.236 85.2699 60.1C83.9499 60.94 82.4859 61.36 80.8779 61.36C79.7259 61.36 78.6339 61.132 77.6019 60.676C76.5939 60.196 75.7539 59.62 75.0819 58.948V66.004C75.0819 66.628 74.8779 67.144 74.4699 67.552C74.0619 67.984 73.5459 68.2 72.9219 68.2C72.2979 68.2 71.7819 67.996 71.3739 67.588C70.9659 67.18 70.7619 66.652 70.7619 66.004V43.936C70.7619 43.312 70.9659 42.796 71.3739 42.388C71.7819 41.956 72.2979 41.74 72.9219 41.74C73.5459 41.74 74.0619 41.956 74.4699 42.388C74.8779 42.796 75.0819 43.312 75.0819 43.936V44.08C75.6579 43.36 76.4619 42.736 77.4939 42.208C78.5259 41.656 79.6059 41.38 80.7339 41.38ZM80.1939 57.4C81.7299 57.4 82.9899 56.824 83.9739 55.672C84.9579 54.52 85.4499 53.08 85.4499 51.352C85.4499 49.624 84.9579 48.196 83.9739 47.068C83.0139 45.916 81.7539 45.34 80.1939 45.34C78.6339 45.34 77.3619 45.916 76.3779 47.068C75.3939 48.196 74.9019 49.624 74.9019 51.352C74.9019 53.08 75.3939 54.52 76.3779 55.672C77.3619 56.824 78.6339 57.4 80.1939 57.4ZM101.652 61.36C99.9236 61.36 98.3876 61.144 97.0436 60.712C95.6996 60.28 94.4396 59.548 93.2636 58.516C92.6156 57.94 92.2916 57.304 92.2916 56.608C92.2916 56.056 92.4956 55.576 92.9036 55.168C93.3116 54.736 93.8036 54.52 94.3796 54.52C94.8356 54.52 95.2436 54.664 95.6036 54.952C96.5636 55.744 97.4996 56.32 98.4116 56.68C99.3236 57.04 100.404 57.22 101.652 57.22C102.996 57.22 104.148 56.92 105.108 56.32C106.092 55.72 106.584 54.976 106.584 54.088C106.584 53.008 106.104 52.168 105.144 51.568C104.184 50.944 102.66 50.476 100.572 50.164C95.3156 49.396 92.6876 46.948 92.6876 42.82C92.6876 41.308 93.0836 40 93.8756 38.896C94.6676 37.768 95.7476 36.916 97.1156 36.34C98.4836 35.74 100.008 35.44 101.688 35.44C103.2 35.44 104.616 35.668 105.936 36.124C107.28 36.58 108.396 37.18 109.284 37.924C109.98 38.476 110.328 39.112 110.328 39.832C110.328 40.384 110.124 40.876 109.716 41.308C109.308 41.716 108.828 41.92 108.276 41.92C107.916 41.92 107.592 41.812 107.304 41.596C106.68 41.092 105.804 40.636 104.676 40.228C103.572 39.796 102.576 39.58 101.688 39.58C100.176 39.58 98.9996 39.868 98.1596 40.444C97.3436 40.996 96.9356 41.728 96.9356 42.64C96.9356 43.672 97.3556 44.452 98.1956 44.98C99.0596 45.508 100.404 45.94 102.228 46.276C104.292 46.636 105.936 47.104 107.16 47.68C108.408 48.232 109.344 49 109.968 49.984C110.592 50.944 110.904 52.228 110.904 53.836C110.904 55.348 110.472 56.68 109.608 57.832C108.768 58.96 107.64 59.836 106.224 60.46C104.808 61.06 103.284 61.36 101.652 61.36ZM133.176 51.388C133.176 53.308 132.744 55.036 131.88 56.572C131.016 58.084 129.828 59.26 128.316 60.1C126.828 60.94 125.184 61.36 123.384 61.36C121.56 61.36 119.904 60.94 118.416 60.1C116.928 59.26 115.752 58.084 114.888 56.572C114.024 55.036 113.592 53.308 113.592 51.388C113.592 49.468 114.024 47.752 114.888 46.24C115.752 44.704 116.928 43.516 118.416 42.676C119.904 41.812 121.56 41.38 123.384 41.38C125.184 41.38 126.828 41.812 128.316 42.676C129.828 43.516 131.016 44.704 131.88 46.24C132.744 47.752 133.176 49.468 133.176 51.388ZM128.856 51.388C128.856 50.212 128.604 49.168 128.1 48.256C127.62 47.32 126.96 46.6 126.12 46.096C125.304 45.592 124.392 45.34 123.384 45.34C122.376 45.34 121.452 45.592 120.612 46.096C119.796 46.6 119.136 47.32 118.632 48.256C118.152 49.168 117.912 50.212 117.912 51.388C117.912 52.564 118.152 53.608 118.632 54.52C119.136 55.432 119.796 56.14 120.612 56.644C121.452 57.148 122.376 57.4 123.384 57.4C124.392 57.4 125.304 57.148 126.12 56.644C126.96 56.14 127.62 55.432 128.1 54.52C128.604 53.608 128.856 52.564 128.856 51.388ZM147.081 41.38C149.529 41.38 151.221 42.112 152.157 43.576C153.093 45.016 153.561 47.02 153.561 49.588V58.804C153.561 59.428 153.357 59.956 152.949 60.388C152.541 60.796 152.025 61 151.401 61C150.777 61 150.261 60.796 149.853 60.388C149.445 59.956 149.241 59.428 149.241 58.804V49.588C149.241 48.268 148.965 47.236 148.413 46.492C147.861 45.724 146.913 45.34 145.569 45.34C144.177 45.34 143.085 45.748 142.293 46.564C141.501 47.356 141.105 48.364 141.105 49.588V58.804C141.105 59.428 140.901 59.956 140.493 60.388C140.085 60.796 139.569 61 138.945 61C138.321 61 137.805 60.796 137.397 60.388C136.989 59.956 136.785 59.428 136.785 58.804V43.936C136.785 43.312 136.989 42.796 137.397 42.388C137.805 41.956 138.321 41.74 138.945 41.74C139.569 41.74 140.085 41.956 140.493 42.388C140.901 42.796 141.105 43.312 141.105 43.936V44.548C141.753 43.684 142.593 42.94 143.625 42.316C144.681 41.692 145.833 41.38 147.081 41.38Z" fill="white"/>
</svg>
